<?xml version="1.0"?>
<svg version="1.1" id="topsvg"
xmlns="http://www.w3.org/2000/svg" xmlns:xlink="http://www.w3.org/1999/xlink"
xmlns:cml="http://www.xml-cml.org/schema" x="0" y="0" width="200px" height="200px" viewBox="0 0 100 100">
<title> - Open Babel Depiction</title>
<rect x="0" y="0" width="100" height="100" fill="white"/>
<g transform="translate(0,0)">
<svg width="100" height="100" x="0" y="0" viewBox="0 0 270.821 297.877"
font-family="sans-serif" stroke="rgb(0,0,0)" stroke-width="2"  stroke-linecap="round">
<line x1="96.7" y1="143.5" x2="101.8" y2="146.5" stroke="rgb(0,0,0)"  stroke-width="2.0"/>
<line x1="126.3" y1="160.6" x2="149.9" y2="174.2" stroke="rgb(0,0,0)"  stroke-width="2.0"/>
<line x1="172.4" y1="174.2" x2="196.0" y2="160.6" stroke="rgb(0,0,0)"  stroke-width="2.0"/>
<line x1="197.5" y1="158.0" x2="221.1" y2="171.6" stroke="rgb(0,0,0)"  stroke-width="2.0"/>
<line x1="194.5" y1="163.2" x2="218.1" y2="176.8" stroke="rgb(0,0,0)"  stroke-width="2.0"/>
<line x1="196.0" y1="160.6" x2="196.0" y2="120.4" stroke="rgb(0,0,0)"  stroke-width="2.0"/>
<line x1="93.1" y1="183.3" x2="99.1" y2="223.1" stroke="rgb(0,0,0)"  stroke-width="2.0"/>
<line x1="101.7" y1="224.6" x2="88.1" y2="248.1" stroke="rgb(0,0,0)"  stroke-width="2.0"/>
<line x1="96.5" y1="221.6" x2="82.9" y2="245.1" stroke="rgb(0,0,0)"  stroke-width="2.0"/>
<line x1="99.1" y1="223.1" x2="126.3" y2="223.1" stroke="rgb(0,0,0)"  stroke-width="2.0"/>
<line x1="145.8" y1="234.3" x2="152.9" y2="246.6" stroke="rgb(0,0,0)"  stroke-width="2.0"/>
<line x1="161.2" y1="60.1" x2="196.0" y2="40.0" stroke="rgb(0,0,0)"  stroke-width="2.0"/>
<line x1="170.0" y1="63.3" x2="194.4" y2="49.2" stroke="rgb(0,0,0)"  stroke-width="2.0"/>
<line x1="196.0" y1="40.0" x2="230.8" y2="60.1" stroke="rgb(0,0,0)"  stroke-width="2.0"/>
<line x1="230.8" y1="60.1" x2="230.8" y2="100.3" stroke="rgb(0,0,0)"  stroke-width="2.0"/>
<line x1="223.6" y1="66.1" x2="223.6" y2="94.3" stroke="rgb(0,0,0)"  stroke-width="2.0"/>
<line x1="230.8" y1="100.3" x2="196.0" y2="120.4" stroke="rgb(0,0,0)"  stroke-width="2.0"/>
<line x1="196.0" y1="120.4" x2="161.2" y2="100.3" stroke="rgb(0,0,0)"  stroke-width="2.0"/>
<line x1="194.4" y1="111.2" x2="170.0" y2="97.1" stroke="rgb(0,0,0)"  stroke-width="2.0"/>
<line x1="161.2" y1="100.3" x2="161.2" y2="60.1" stroke="rgb(0,0,0)"  stroke-width="2.0"/>
<line x1="60.1" y1="99.2" x2="40.0" y2="134.0" stroke="rgb(0,0,0)"  stroke-width="2.0"/>
<line x1="40.0" y1="134.0" x2="54.7" y2="171.4" stroke="rgb(0,0,0)"  stroke-width="2.0"/>
<line x1="54.7" y1="171.4" x2="80.8" y2="148.6" stroke="rgb(0,0,0)"  stroke-width="2.0"/>
<line x1="93.1" y1="127.2" x2="99.9" y2="93.2" stroke="rgb(0,0,0)"  stroke-width="2.0"/>
<line x1="99.9" y1="93.2" x2="60.1" y2="99.2" stroke="rgb(0,0,0)"  stroke-width="2.0"/>
<line x1="93.1" y1="183.3" x2="54.7" y2="171.4" stroke="rgb(0,0,0)"  stroke-width="2.0"/>
<line x1="99.9" y1="93.2" x2="129.3" y2="120.5" stroke="rgb(0,0,0)"  stroke-width="2.0"/>
<line x1="129.3" y1="120.5" x2="126.3" y2="160.6" stroke="rgb(0,0,0)"  stroke-width="2.0"/>
<line x1="126.3" y1="160.6" x2="93.1" y2="183.3" stroke="rgb(0,0,0)"  stroke-width="2.0"/>
<text x="103.983768" y="158.038568" fill="rgb(102,102,102)"  stroke="rgb(102,102,102)" stroke-width="1" font-size="16" >CH</text>
<text x="127.983768" y="161.718568" fill="rgb(102,102,102)"  stroke="rgb(102,102,102)" stroke-width="1" font-size="13" >3</text>
<text x="84.570302" y="147.984899" fill="rgb(12,12,255)"  stroke="rgb(12,12,255)" stroke-width="1" font-size="16" >N</text>
<text x="155.169685" y="188.745471" fill="rgb(255,12,12)"  stroke="rgb(255,12,12)" stroke-width="1" font-size="16" >O</text>
<text x="224.820630" y="188.745471" fill="rgb(255,12,12)"  stroke="rgb(255,12,12)" stroke-width="1" font-size="16" >O</text>
<text x="73.001068" y="265.873192" fill="rgb(255,12,12)"  stroke="rgb(255,12,12)" stroke-width="1" font-size="16" >O</text>
<text x="133.318505" y="231.052953" fill="rgb(255,12,12)"  stroke="rgb(255,12,12)" stroke-width="1" font-size="16" >O</text>
<text x="155.421979" y="265.877242" fill="rgb(102,102,102)"  stroke="rgb(102,102,102)" stroke-width="1" font-size="16" >CH</text>
<text x="179.421979" y="269.557242" fill="rgb(102,102,102)"  stroke="rgb(102,102,102)" stroke-width="1" font-size="13" >3</text>
</svg>
</g>
<text font-size="18.000000" fill ="black" font-family="sans-serif"
x="10.000000" y="20.000000" ></text>
</svg>
